<svg xmlns="http://www.w3.org/2000/svg" viewBox="0 0 100 100">
  <ellipse cx="50" cy="68" rx="30" ry="22" fill="#FFD54F"/>
  <circle cx="50" cy="38" r="20" fill="#FFD54F"/>
  <ellipse cx="50" cy="45" rx="8" ry="4" fill="#FF8F00"/>
  <circle cx="43" cy="34" r="3" fill="#3E2723"/>
  <circle cx="57" cy="34" r="3" fill="#3E2723"/>
  <circle cx="44" cy="33" r="1" fill="#fff"/>
  <circle cx="58" cy="33" r="1" fill="#fff"/>
  <ellipse cx="28" cy="65" rx="10" ry="14" fill="#FFC107" transform="rotate(-15 28 65)"/>
  <ellipse cx="72" cy="65" rx="10" ry="14" fill="#FFC107" transform="rotate(15 72 65)"/>
  <!-- Helmet (glass dome) -->
  <circle cx="50" cy="36" r="24" fill="none" stroke="#E0E0E0" stroke-width="3"/>
  <circle cx="50" cy="36" r="22" fill="rgba(200,230,255,0.3)"/>
  <!-- Helmet glare -->
  <path d="M35,28 Q38,22 44,24" fill="none" stroke="rgba(255,255,255,0.6)" stroke-width="2" stroke-linecap="round"/>
  <!-- Antenna -->
  <line x1="50" y1="14" x2="50" y2="6" stroke="#9E9E9E" stroke-width="2"/>
  <circle cx="50" cy="4" r="3" fill="#E53935"/>
  <!-- Suit details -->
  <rect x="42" y="60" width="16" height="10" rx="3" fill="#E0E0E0"/>
  <rect x="44" y="62" width="5" height="3" rx="1" fill="#1E88E5"/>
  <rect x="51" y="62" width="5" height="3" rx="1" fill="#E53935"/>
  <circle cx="47" cy="68" r="1.5" fill="#43A047"/>
</svg>
