<svg xmlns="http://www.w3.org/2000/svg" viewBox="0 0 100 100">
  <ellipse cx="50" cy="68" rx="30" ry="22" fill="#FFD54F"/>
  <circle cx="50" cy="38" r="20" fill="#FFD54F"/>
  <ellipse cx="50" cy="45" rx="8" ry="4" fill="#FF8F00"/>
  <circle cx="43" cy="34" r="3" fill="#3E2723"/>
  <circle cx="57" cy="34" r="3" fill="#3E2723"/>
  <circle cx="44" cy="33" r="1" fill="#fff"/>
  <circle cx="58" cy="33" r="1" fill="#fff"/>
  <circle cx="38" cy="40" r="4" fill="#FFAB91" opacity="0.4"/>
  <circle cx="62" cy="40" r="4" fill="#FFAB91" opacity="0.4"/>
  <ellipse cx="28" cy="65" rx="10" ry="14" fill="#FFC107" transform="rotate(-15 28 65)"/>
  <ellipse cx="72" cy="65" rx="10" ry="14" fill="#FFC107" transform="rotate(15 72 65)"/>
  <!-- Chef hat -->
  <ellipse cx="50" cy="24" rx="18" ry="4" fill="#fff" stroke="#E0E0E0" stroke-width="0.5"/>
  <rect x="36" y="18" width="28" height="8" rx="2" fill="#fff" stroke="#E0E0E0" stroke-width="0.5"/>
  <circle cx="42" cy="12" r="8" fill="#fff" stroke="#E0E0E0" stroke-width="0.5"/>
  <circle cx="50" cy="10" r="8" fill="#fff" stroke="#E0E0E0" stroke-width="0.5"/>
  <circle cx="58" cy="12" r="8" fill="#fff" stroke="#E0E0E0" stroke-width="0.5"/>
</svg>
