<svg xmlns="http://www.w3.org/2000/svg" viewBox="0 0 100 100">
  <ellipse cx="50" cy="68" rx="30" ry="22" fill="#FFD54F"/>
  <circle cx="50" cy="38" r="20" fill="#FFD54F"/>
  <ellipse cx="50" cy="45" rx="8" ry="4" fill="#FF8F00"/>
  <circle cx="43" cy="34" r="3" fill="#3E2723"/>
  <circle cx="57" cy="34" r="3" fill="#3E2723"/>
  <circle cx="44" cy="33" r="1" fill="#fff"/>
  <circle cx="58" cy="33" r="1" fill="#fff"/>
  <circle cx="38" cy="40" r="4" fill="#FFAB91" opacity="0.4"/>
  <circle cx="62" cy="40" r="4" fill="#FFAB91" opacity="0.4"/>
  <ellipse cx="28" cy="65" rx="10" ry="14" fill="#FFC107" transform="rotate(-15 28 65)"/>
  <ellipse cx="72" cy="65" rx="10" ry="14" fill="#FFC107" transform="rotate(15 72 65)"/>
  <!-- Cowboy hat -->
  <ellipse cx="50" cy="26" rx="28" ry="6" fill="#8D6E63"/>
  <path d="M34,26 Q36,10 50,8 Q64,10 66,26" fill="#A1887F"/>
  <!-- Hat band -->
  <rect x="36" y="22" width="28" height="3" rx="1" fill="#5D4037"/>
  <!-- Star badge on hat -->
  <polygon points="50,17 51,20 54,20 52,22 53,25 50,23 47,25 48,22 46,20 49,20" fill="#FFD54F"/>
</svg>
