<svg xmlns="http://www.w3.org/2000/svg" viewBox="0 0 100 100">
  <ellipse cx="50" cy="68" rx="30" ry="22" fill="#FFD54F"/>
  <circle cx="50" cy="38" r="20" fill="#FFD54F"/>
  <ellipse cx="50" cy="45" rx="8" ry="4" fill="#FF8F00"/>
  <circle cx="43" cy="34" r="3" fill="#3E2723"/>
  <circle cx="57" cy="34" r="3" fill="#3E2723"/>
  <circle cx="44" cy="33" r="1" fill="#fff"/>
  <circle cx="58" cy="33" r="1" fill="#fff"/>
  <circle cx="38" cy="40" r="4" fill="#FFAB91" opacity="0.4"/>
  <circle cx="62" cy="40" r="4" fill="#FFAB91" opacity="0.4"/>
  <ellipse cx="28" cy="65" rx="10" ry="14" fill="#FFC107" transform="rotate(-15 28 65)"/>
  <ellipse cx="72" cy="65" rx="10" ry="14" fill="#FFC107" transform="rotate(15 72 65)"/>
  <!-- Devil horns -->
  <polygon points="33,25 28,6 38,20" fill="#E53935"/>
  <polygon points="67,25 72,6 62,20" fill="#E53935"/>
  <!-- Mischievous eyebrows -->
  <line x1="39" y1="30" x2="46" y2="28" stroke="#3E2723" stroke-width="2" stroke-linecap="round"/>
  <line x1="54" y1="28" x2="61" y2="30" stroke="#3E2723" stroke-width="2" stroke-linecap="round"/>
  <!-- Tail -->
  <path d="M80,68 Q88,55 82,45 Q78,50 85,58" fill="none" stroke="#E53935" stroke-width="2.5" stroke-linecap="round"/>
  <polygon points="82,43 86,48 78,47" fill="#E53935"/>
</svg>
