<svg xmlns="http://www.w3.org/2000/svg" viewBox="0 0 100 100">
  <ellipse cx="50" cy="68" rx="30" ry="22" fill="#FFD54F"/>
  <circle cx="50" cy="38" r="20" fill="#FFD54F"/>
  <ellipse cx="50" cy="45" rx="8" ry="4" fill="#FF8F00"/>
  <ellipse cx="28" cy="65" rx="10" ry="14" fill="#FFC107" transform="rotate(-15 28 65)"/>
  <ellipse cx="72" cy="65" rx="10" ry="14" fill="#FFC107" transform="rotate(15 72 65)"/>
  <!-- Ninja mask (covers most of head) -->
  <path d="M30,38 Q30,20 50,18 Q70,20 70,38 Q70,42 65,44 L35,44 Q30,42 30,38 Z" fill="#212121"/>
  <!-- Eye slit -->
  <rect x="32" y="30" width="36" height="8" rx="4" fill="#FFD54F"/>
  <!-- Eyes visible through slit -->
  <circle cx="43" cy="34" r="3" fill="#3E2723"/>
  <circle cx="57" cy="34" r="3" fill="#3E2723"/>
  <circle cx="44" cy="33" r="1" fill="#fff"/>
  <circle cx="58" cy="33" r="1" fill="#fff"/>
  <!-- Headband tails -->
  <path d="M70,30 Q78,28 82,22" fill="none" stroke="#E53935" stroke-width="3" stroke-linecap="round"/>
  <path d="M70,33 Q76,32 80,28" fill="none" stroke="#E53935" stroke-width="3" stroke-linecap="round"/>
  <!-- Throwing star -->
  <polygon points="15,25 18,20 15,15 20,18 25,15 22,20 25,25 20,22" fill="#9E9E9E" stroke="#757575" stroke-width="0.5"/>
</svg>
