<svg xmlns="http://www.w3.org/2000/svg" viewBox="0 0 100 100">
  <ellipse cx="50" cy="68" rx="30" ry="22" fill="#FFD54F"/>
  <circle cx="50" cy="38" r="20" fill="#FFD54F"/>
  <ellipse cx="50" cy="45" rx="8" ry="4" fill="#FF8F00"/>
  <!-- Eyes - one with eye patch -->
  <circle cx="57" cy="34" r="3" fill="#3E2723"/>
  <circle cx="58" cy="33" r="1" fill="#fff"/>
  <!-- Eye patch -->
  <ellipse cx="43" cy="34" rx="5" ry="4" fill="#212121"/>
  <line x1="43" y1="30" x2="60" y2="22" stroke="#212121" stroke-width="2"/>
  <line x1="43" y1="30" x2="30" y2="25" stroke="#212121" stroke-width="2"/>
  <!-- Cheeks -->
  <circle cx="38" cy="40" r="4" fill="#FFAB91" opacity="0.4"/>
  <circle cx="62" cy="40" r="4" fill="#FFAB91" opacity="0.4"/>
  <!-- Wings -->
  <ellipse cx="28" cy="65" rx="10" ry="14" fill="#FFC107" transform="rotate(-15 28 65)"/>
  <ellipse cx="72" cy="65" rx="10" ry="14" fill="#FFC107" transform="rotate(15 72 65)"/>
  <!-- Pirate hat -->
  <ellipse cx="50" cy="25" rx="24" ry="6" fill="#212121"/>
  <path d="M30,25 Q32,8 50,10 Q68,8 70,25 Z" fill="#212121"/>
  <!-- Skull and crossbones on hat -->
  <circle cx="50" cy="17" r="4" fill="#fff"/>
  <circle cx="48" cy="16" r="1" fill="#212121"/>
  <circle cx="52" cy="16" r="1" fill="#212121"/>
  <line x1="44" y1="20" x2="56" y2="20" stroke="#fff" stroke-width="1.5"/>
  <line x1="46" y1="18" x2="46" y2="22" stroke="#fff" stroke-width="1.5"/>
  <line x1="54" y1="18" x2="54" y2="22" stroke="#fff" stroke-width="1.5"/>
</svg>
