<svg xmlns="http://www.w3.org/2000/svg" viewBox="0 0 100 100">
  <ellipse cx="50" cy="68" rx="30" ry="22" fill="#FFD54F"/>
  <circle cx="50" cy="38" r="20" fill="#FFD54F"/>
  <ellipse cx="50" cy="45" rx="8" ry="4" fill="#FF8F00"/>
  <ellipse cx="28" cy="65" rx="10" ry="14" fill="#FFC107" transform="rotate(-15 28 65)"/>
  <ellipse cx="72" cy="65" rx="10" ry="14" fill="#FFC107" transform="rotate(15 72 65)"/>
  <!-- Robot visor -->
  <rect x="34" y="28" width="32" height="12" rx="6" fill="#78909C"/>
  <!-- LED eyes -->
  <circle cx="43" cy="34" r="4" fill="#00E676"/>
  <circle cx="43" cy="34" r="2" fill="#69F0AE"/>
  <circle cx="57" cy="34" r="4" fill="#00E676"/>
  <circle cx="57" cy="34" r="2" fill="#69F0AE"/>
  <!-- Antenna -->
  <line x1="50" y1="18" x2="50" y2="8" stroke="#78909C" stroke-width="2"/>
  <circle cx="50" cy="6" r="3" fill="#00E676"/>
  <!-- Bolts on sides -->
  <circle cx="30" cy="38" r="2.5" fill="#78909C" stroke="#546E7A" stroke-width="1"/>
  <line x1="29" y1="38" x2="31" y2="38" stroke="#546E7A" stroke-width="1"/>
  <circle cx="70" cy="38" r="2.5" fill="#78909C" stroke="#546E7A" stroke-width="1"/>
  <line x1="69" y1="38" x2="71" y2="38" stroke="#546E7A" stroke-width="1"/>
  <!-- Chest panel -->
  <rect x="40" y="58" width="20" height="14" rx="3" fill="#78909C"/>
  <rect x="43" y="60" width="6" height="3" rx="1" fill="#E53935"/>
  <rect x="51" y="60" width="6" height="3" rx="1" fill="#1E88E5"/>
  <rect x="43" y="65" width="6" height="3" rx="1" fill="#FFD54F"/>
  <rect x="51" y="65" width="6" height="3" rx="1" fill="#00E676"/>
</svg>
