<svg xmlns="http://www.w3.org/2000/svg" viewBox="0 0 100 100">
  <ellipse cx="50" cy="68" rx="30" ry="22" fill="#FFD54F"/>
  <circle cx="50" cy="38" r="20" fill="#FFD54F"/>
  <ellipse cx="50" cy="45" rx="8" ry="4" fill="#FF8F00"/>
  <circle cx="43" cy="34" r="3" fill="#3E2723"/>
  <circle cx="57" cy="34" r="3" fill="#3E2723"/>
  <circle cx="44" cy="33" r="1" fill="#fff"/>
  <circle cx="58" cy="33" r="1" fill="#fff"/>
  <circle cx="38" cy="40" r="4" fill="#FFAB91" opacity="0.4"/>
  <circle cx="62" cy="40" r="4" fill="#FFAB91" opacity="0.4"/>
  <ellipse cx="28" cy="65" rx="10" ry="14" fill="#FFC107" transform="rotate(-15 28 65)"/>
  <ellipse cx="72" cy="65" rx="10" ry="14" fill="#FFC107" transform="rotate(15 72 65)"/>
  <!-- Mohawk hair -->
  <path d="M42,22 Q44,4 50,6 Q56,4 58,22" fill="#E53935"/>
  <path d="M44,22 Q46,8 50,10 Q54,8 56,22" fill="#FF5252"/>
  <!-- Sunglasses -->
  <rect x="36" y="30" width="12" height="8" rx="2" fill="#212121"/>
  <rect x="52" y="30" width="12" height="8" rx="2" fill="#212121"/>
  <line x1="48" y1="34" x2="52" y2="34" stroke="#212121" stroke-width="2"/>
  <!-- Guitar -->
  <ellipse cx="85" cy="72" rx="10" ry="7" fill="#8D6E63"/>
  <ellipse cx="85" cy="72" rx="5" ry="3.5" fill="#3E2723"/>
  <line x1="85" y1="65" x2="85" y2="42" stroke="#5D4037" stroke-width="2.5"/>
  <rect x="82" y="40" width="6" height="5" rx="1" fill="#5D4037"/>
</svg>
